<svg xmlns="http://www.w3.org/2000/svg" viewBox="0 0 200 150">
  <defs>
    <linearGradient id="grad1" x1="0%" y1="0%" x2="100%" y2="100%">
      <stop offset="0%" style="stop-color:#374151;stop-opacity:1" />
      <stop offset="100%" style="stop-color:#111827;stop-opacity:1" />
    </linearGradient>
    <linearGradient id="grad2" x1="0%" y1="0%" x2="100%" y2="0%">
      <stop offset="0%" style="stop-color:#F59E0B;stop-opacity:1" />
      <stop offset="100%" style="stop-color:#D97706;stop-opacity:1" />
    </linearGradient>
    <filter id="dropShadow" x="-20%" y="-20%" width="140%" height="140%">
      <feGaussianBlur in="SourceAlpha" stdDeviation="2"/>
      <feOffset dx="1" dy="2" result="offsetblur"/>
      <feComponentTransfer>
        <feFuncA type="linear" slope="0.3"/>
      </feComponentTransfer>
      <feMerge> 
        <feMergeNode/>
        <feMergeNode in="SourceGraphic"/> 
      </feMerge>
    </filter>
  </defs>
  
  <!-- G Shape -->
  <path d="M90 40 
           A 40 40 0 1 0 90 110 
           L 110 110 
           L 110 85 
           L 80 85 
           L 80 65 
           L 130 65 
           L 130 110 
           A 10 10 0 0 1 120 120 
           L 90 120 
           A 50 50 0 1 1 90 30 
           Z" 
        fill="url(#grad1)" 
        filter="url(#dropShadow)"/>

  <!-- P Shape (Interlocking/Overlapping) -->
  <path d="M105 40 
           L 140 40 
           A 35 35 0 0 1 140 110 
           L 125 110 
           L 125 130 
           L 105 130 
           Z 
           M 125 60 
           L 125 90 
           L 140 90 
           A 15 15 0 0 0 140 60 
           Z" 
        fill="url(#grad2)" 
        filter="url(#dropShadow)"/>
</svg>
